HIERARCHY
ROOT Hips
{
  OFFSET 14.031 96.8003 -48.2971
  CHANNELS 6 Xposition Yposition Zposition Zrotation Xrotation Yrotation
  JOINT RightUpLeg
  {
    OFFSET -8.9458 -8.66707 0.101652
    CHANNELS 3 Zrotation Xrotation Yrotation
    JOINT RightLeg
    {
      OFFSET 0 -44.4227 1.3727
      CHANNELS 3 Zrotation Xrotation Yrotation
      JOINT RightFoot
      {
        OFFSET 0.253549 -42.0924 -1.46059
        CHANNELS 3 Zrotation Xrotation Yrotation
        JOINT RightToes
        {
          OFFSET 0.04 -4.41509 8.4991
          CHANNELS 3 Zrotation Xrotation Yrotation
          End Site
          {
            OFFSET -0.08 -0.137448 9.77979
          }
        }
      }
    }
  }
  JOINT Spine
  {
    OFFSET 0 11.8905 0
    CHANNELS 3 Zrotation Xrotation Yrotation
    JOINT Spine1
    {
      OFFSET 0 25.6574 0.127663
      CHANNELS 3 Zrotation Xrotation Yrotation
      JOINT RightShoulder
      {
        OFFSET -8.99 -0.362252 -0.22
        CHANNELS 3 Zrotation Xrotation Yrotation
        JOINT RightArm
        {
          OFFSET -10.2827 -0.00338 0.322123
          CHANNELS 3 Zrotation Xrotation Yrotation
          JOINT RightForeArm
          {
            OFFSET -32.8971 0.099144 -1.42434
            CHANNELS 3 Zrotation Xrotation Yrotation
            JOINT RightHand
            {
              OFFSET -27.4921 0.085362 1.02216
              CHANNELS 3 Zrotation Xrotation Yrotation
              End Site
              {
                OFFSET -16.6312 -0.6 1.50291
              }
            }
          }
        }
      }
      JOINT HEad
      {
        OFFSET 0 8.73416 0.011341
        CHANNELS 3 Zrotation Xrotation Yrotation
        End Site
        {
          OFFSET -0.29 12.7742 2.51395
        }
      }
      JOINT LeftShoulder1
      {
        OFFSET 8.99 -0.362252 -0.22
        CHANNELS 3 Zrotation Xrotation Yrotation
        JOINT LeftArm
        {
          OFFSET 10.2827 -0.00338 0.322123
          CHANNELS 3 Zrotation Xrotation Yrotation
          JOINT LeftForeArm
          {
            OFFSET 32.7669 0.099144 -1.42434
            CHANNELS 3 Zrotation Xrotation Yrotation
            JOINT LeftHand
            {
              OFFSET 27.5643 0.085362 1.02216
              CHANNELS 3 Zrotation Xrotation Yrotation
              End Site
              {
                OFFSET 16.7443 -0.6 1.50291
              }
            }
          }
        }
      }
    }
  }
  JOINT LeftUpLeg
  {
    OFFSET 8.9458 -8.66707 0.101652
    CHANNELS 3 Zrotation Xrotation Yrotation
    JOINT LeftLeg
    {
      OFFSET 0 -44.4227 1.3727
      CHANNELS 3 Zrotation Xrotation Yrotation
      JOINT LeftFoot
      {
        OFFSET -0.253549 -42.0924 -1.46059
        CHANNELS 3 Zrotation Xrotation Yrotation
        JOINT LeftToes
        {
          OFFSET -0.04 -4.41509 8.4991
          CHANNELS 3 Zrotation Xrotation Yrotation
          End Site
          {
            OFFSET 0.08 -0.047448 9.77979
          }
        }
      }
    }
  }
}
MOTION
Frames:	22
Frame Time:	0.0166667
-36.5561 95.018 -85.4686 -6.73591 -5.05767 -60.4385 -14.635 5.72299 8.27412 12.8901 35.2429 -4.16229 12.9576 3.10154 -1.32161 -21.817 -21.0233 26.4286 -1.09508 12.511 2.5275 1.46853 24.7531 3.48982 18.7063 5.17487 21.8931 53.0745 -19.1104 66.2017 22.5104 50.8741 108.88 2.86577 8.78693 -39.1545 -5.70719 -13.0145 33.6948 -1.59028e-015 -4.77083e-015 9.54166e-015 -61.5199 -54.9979 -27.7911 -15.9863 42.3166 -73.2639 6.01498 9.26551 -9.46382 21.3006 -14.0998 -6.57187 -4.80984 46.3803 9.80598 -19.2997 28.2033 5.89878 -9.32329 -24.3564 -16.8945 
-35.7446 93.4539 -85.8002 -6.93665 -4.79698 -59.5404 -15.0694 8.68598 9.43711 13.3642 32.7037 -1.97364 12.4791 -1.71831 -0.783736 -21.6693 -20.8306 24.2114 -0.437924 12.2328 2.46222 1.82471 24.1971 3.55554 17.4851 4.79654 21.3509 56.5749 -20.0681 70.1067 22.8836 51.8459 107.179 2.32819 8.93197 -39.9033 -5.37247 -12.3623 32.5504 -3.18055e-015 3.18055e-015 3.18055e-015 -64.4344 -53.7694 -31.1207 -16.42 42.2429 -71.6098 6.11325 9.27599 -8.9919 21.4916 -13.5788 -5.92058 -4.22186 47.1044 10.9178 -18.2714 26.4559 5.29452 -11.9661 -29.1722 -18.6973 
-34.827 91.822 -85.9106 -7.25766 -4.11148 -59.1661 -14.9576 11.1996 10.7732 13.2028 29.6856 0.448865 11.3298 -7.67417 -0.170395 -21.0783 -20.0557 22.5535 0.50773 11.954 2.44509 2.22828 23.7139 3.93965 15.85 4.42994 21.2455 61.6374 -21.3279 74.8749 24.4176 53.6458 103.926 1.39619 9.22678 -39.9364 -4.91932 -12.4236 31.6335 -1.59028e-015 -2.38542e-015 3.18055e-015 -66.7263 -53.3758 -32.8965 -16.8544 42.495 -72.3384 6.14091 9.27733 -8.89601 22.1282 -13.0737 -5.52549 -4.6078 47.8129 12.8889 -16.9223 23.1998 4.4155 -14.9907 -34.6803 -19.6727 
-33.7551 90.2967 -85.8302 -7.74938 -3.06184 -59.4712 -14.3467 12.8591 11.9465 12.4632 27.0442 2.30465 9.78263 -13.1297 0.26731 -20.1292 -18.8186 21.74 1.56891 11.7796 2.53902 2.77147 23.4762 4.60721 13.9242 4.06268 21.4575 67.6052 -22.3379 80.1177 26.9644 55.8768 99.5403 0.245071 9.5965 -39.4093 -4.50512 -13.3976 30.9664 1.59028e-015 -6.36111e-015 -6.36111e-015 -68.0445 -53.3459 -32.7937 -17.3533 42.7218 -75.1807 6.18055 9.24623 -9.45336 23.1414 -12.7322 -5.29279 -5.69771 48.8175 15.1243 -15.6835 18.6566 3.47721 -17.0989 -39.2 -18.922 
-32.532 89.1067 -85.6106 -8.2982 -1.83778 -60.4314 -13.4555 13.4652 12.8217 11.3082 25.2175 3.40724 8.24926 -16.7922 0.439926 -19.4407 -17.9343 21.2154 2.43054 11.7898 2.78538 3.43972 23.5958 5.41927 12.033 3.72127 21.8227 73.2693 -22.6957 85.0191 29.8272 57.9843 95.0857 -0.841497 9.93429 -38.6929 -4.28735 -15.2207 30.5392 -3.18055e-015 -6.36111e-015 3.18055e-015 -68.0851 -53.0156 -30.6758 -17.8413 42.5706 -79.4945 6.18404 9.18052 -10.8196 24.2927 -12.7008 -5.15622 -7.09923 50.1056 17.086 -15.174 14.3963 2.81953 -17.7907 -41.8315 -17.0573 
-31.1984 88.4012 -85.2877 -8.67455 -0.718411 -61.8311 -12.6767 13.0343 13.5969 10.0225 24.3103 3.95406 7.2408 -18.579 0.462947 -19.0863 -17.4917 20.8332 2.92049 11.9787 3.13215 4.07482 24.0363 6.18753 10.6306 3.47413 22.1847 77.3057 -22.4673 88.5463 31.9239 59.5447 92.031 -1.67003 10.1817 -38.1326 -4.28734 -17.5316 30.3171 -1.59028e-015 -5.56597e-015 -3.18055e-015 -66.8965 -51.894 -26.9131 -18.1456 41.996 -84.4607 5.9308 9.11854 -12.9011 25.2818 -13.2057 -5.10709 -8.6742 51.5761 18.6367 -15.6828 12.3254 2.64802 -18.2037 -43.231 -16.2706 
-29.8187 88.2222 -84.8845 -8.66426 -0.0339949 -63.379 -12.4915 11.7596 14.4267 8.89364 24.2091 4.36412 7.20941 -19.1205 0.491829 -18.6461 -16.9069 20.8807 2.93901 12.2682 3.49633 4.42137 24.6363 6.77754 10.0863 3.38504 22.391 78.9449 -22.067 89.9123 32.4144 60.3955 91.4749 -2.2404 10.3485 -37.8681 -4.37481 -19.8244 30.2414 -3.18055e-015 -7.95139e-016 -3.18055e-015 -64.8653 -49.8753 -22.3886 -18.1536 41.2621 -89.2531 5.27651 9.12281 -15.2291 25.8697 -14.3652 -5.09639 -10.6189 53.0017 20.018 -17.1163 13.4856 3.06771 -19.4957 -44.2535 -18.2072 
-28.447 88.5113 -84.3994 -8.2357 0.0256674 -64.8902 -13.1975 9.85782 15.0651 8.11361 24.7523 5.07533 8.08978 -18.6881 0.553504 -18.0313 -16.0533 21.2699 2.51752 12.5585 3.81244 4.30523 25.2065 7.17651 10.5429 3.47644 22.3341 78.0425 -21.8359 88.7738 31.1519 60.4396 93.5911 -2.64221 10.4674 -37.8533 -4.41693 -21.6356 30.2602 -4.77083e-015 3.18055e-015 6.36111e-015 -62.3527 -47.2114 -18.0001 -17.9006 40.6352 -93.2129 4.29292 9.229 -17.1587 26.0412 -15.9932 -4.88186 -12.966 54.0776 21.2325 -19.3093 17.6 4.15066 -21.6088 -44.6669 -22.7864 
-27.1088 89.1591 -83.8203 -7.53558 -0.462058 -66.3917 -14.6883 7.44409 14.9159 7.58525 25.8343 6.43785 9.28375 -16.9065 0.533458 -17.668 -15.549 21.4252 1.8048 12.7732 4.05118 3.75092 25.6134 7.44509 11.8912 3.72664 22.0532 74.8043 -21.7548 85.2226 28.6398 59.5382 97.6226 -2.92984 10.554 -37.9201 -4.42338 -22.6726 30.4127 6.17947e-031 5.56597e-015 -6.36111e-015 -59.5316 -44.455 -14.2474 -17.6333 40.1718 -95.8845 3.10882 9.42667 -18.2868 25.9726 -17.624 -4.14045 -15.1693 54.5682 21.5898 -22.1739 23.2666 5.87453 -23.1656 -43.5617 -28.1009 
-25.8033 90.0574 -83.1471 -6.77165 -1.20682 -68.0236 -16.4467 4.55068 13.3427 6.77227 27.4193 8.72404 10.3439 -13.2817 0.307789 -18.0862 -16.152 21.0077 0.982946 12.8794 4.19968 2.96554 25.8092 7.60688 13.8335 4.0902 21.728 69.7926 -21.4631 79.8426 25.8013 57.7377 102.177 -3.11967 10.6086 -37.843 -4.53063 -22.8931 30.8624 -1.59028e-015 3.97569e-015 6.36111e-015 -56.4792 -42.4505 -11.242 -17.8323 39.8509 -96.8908 1.83797 9.67283 -18.7182 25.8747 -18.8052 -2.8479 -16.476 54.4179 20.1092 -25.5 28.4767 7.96454 -22.5763 -40.5727 -31.5106 
-24.5211 91.1012 -82.4037 -6.11892 -1.86347 -69.8484 -17.7833 1.22947 10.1306 4.94304 29.4392 11.8721 11.5259 -7.68606 -0.169238 -19.6612 -18.265 20.5129 0.188927 12.888 4.24307 2.22163 25.83 7.60965 16.0091 4.51861 21.532 63.9651 -20.6061 73.6857 23.4791 55.4272 105.931 -3.22663 10.6309 -37.4412 -4.86662 -22.5127 31.7805 1.59028e-015 4.77083e-015 -0 -53.2376 -42.1282 -8.94634 -19.0149 39.7375 -95.864 0.719622 9.89737 -18.9745 25.895 -19.3309 -1.45986 -16.559 53.6296 16.4957 -28.5538 31.5107 9.74452 -19.9017 -36.3926 -31.9179 
-23.2707 92.1514 -81.6398 -5.67766 -2.18814 -71.7511 -18.2068 -2.37303 6.02169 1.91929 31.6964 14.9218 13.4426 -0.405719 -0.979918 -22.6496 -22.1163 20.947 -0.508292 12.8373 4.15945 1.73453 25.7593 7.36052 18.1157 4.97221 21.5464 58.2661 -19.2153 67.8777 21.9813 53.0999 108.314 -3.27819 10.6274 -36.6578 -5.41423 -21.9085 33.1998 -3.18055e-015 -1.59028e-015 -0 -49.8446 -44.0623 -7.37707 -21.4778 39.8437 -92.4714 0.155203 10.0152 -19.6235 26.1077 -19.2097 -0.69528 -15.6776 52.1145 11.9068 -29.9745 31.7671 10.3277 -16.8071 -32.4092 -30.3872 
-22.0907 93.0224 -80.9074 -5.48618 -2.12122 -73.4571 -17.6895 -5.97488 2.68924 -1.26586 34.158 16.0421 16.2256 7.792 -2.26456 -26.9452 -27.7094 22.6774 -1.02878 12.7685 3.89898 1.59141 25.6762 6.74769 20.0097 5.43842 21.7984 53.1591 -17.6985 63.1482 21.1907 51.0875 109.484 -3.33447 10.617 -35.5613 -5.96158 -21.4179 35.0047 -3.18055e-015 -3.97569e-015 -6.36111e-015 -46.4464 -48.184 -6.69368 -25.2037 39.8676 -86.4776 0.474714 9.95152 -20.9261 26.5155 -18.523 -1.14506 -14.3438 49.727 8.69494 -28.6421 29.9644 9.38188 -14.8639 -30.0648 -28.6362 
-21.0323 93.5635 -80.221 -5.55967 -1.77534 -74.6125 -16.5909 -9.17622 1.49212 -2.94059 37.2814 14.1089 19.1979 15.3831 -3.89553 -31.6362 -33.9835 24.6873 -1.2152 12.7131 3.38293 1.76336 25.6191 5.65569 21.7119 5.934 22.2934 48.7028 -16.5579 59.7377 20.8878 49.5789 109.876 -3.44725 10.6174 -34.3418 -6.20138 -21.1238 36.9963 -4.77083e-015 6.36111e-015 -6.36111e-015 -43.5233 -53.8548 -7.3495 -29.6711 39.1463 -77.9941 1.70441 9.66423 -22.738 27.0152 -17.3344 -2.94894 -12.811 46.3179 8.80809 -24.6956 27.423 7.47214 -14.3802 -29.8511 -27.2438 
-20.127 93.7204 -79.5433 -5.91352 -1.35289 -74.9054 -15.3596 -11.5868 2.26547 -2.00119 41.3958 9.89951 21.6182 20.5924 -5.351 -35.6016 -39.1727 25.6714 -0.891196 12.6876 2.55632 2.16926 25.5813 4.03138 23.2147 6.45419 22.9857 45.0038 -16.1359 57.6248 20.8544 48.6877 109.878 -3.58083 10.6257 -33.3134 -5.93896 -20.7778 38.8997 -3.18055e-015 5.56597e-015 3.18055e-015 -42.2828 -60.0636 -10.452 -33.443 37.0374 -67.9578 3.68484 9.1456 -24.5329 27.4223 -15.7276 -5.67008 -10.933 41.9275 12.0889 -19.3659 24.8589 5.36128 -14.1664 -30.4935 -24.9349 
-19.3803 93.4831 -78.8222 -6.56299 -1.07643 -74.2089 -14.3699 -12.8672 3.66078 1.63896 45.9044 4.96719 23.3424 22.6567 -6.20285 -38.3778 -42.408 25.3414 -0.0667718 12.6866 1.46708 2.70734 25.5478 1.98465 24.2329 6.90173 23.7562 42.5259 -16.4947 56.8331 20.8707 48.4233 109.682 -3.67513 10.6357 -32.7921 -5.25561 -19.9704 40.3451 -7.95139e-016 -1.98785e-015 -0 -44.2509 -62.3633 -17.4033 -32.6541 30.8069 -60.4006 6.17612 8.48934 -24.9761 27.5368 -13.8512 -8.40713 -8.44704 37.0304 16.1699 -14.3675 22.2556 3.60451 -12.6272 -29.8315 -20.1248 
-18.7725 92.8534 -78.0122 -7.50205 -1.09352 -72.7012 -13.8086 -12.7479 4.37476 6.95789 49.6059 0.2959 24.3272 22.1696 -6.37051 -40.2958 -44.1124 23.9379 1.05931 12.6964 0.284148 3.27574 25.5447 -0.156545 24.1631 7.07327 24.447 42.0971 -17.5175 57.6127 20.8569 48.7572 109.179 -3.79356 10.6673 -32.8673 -4.47211 -18.4648 40.9453 1.59028e-015 -6.16232e-015 6.36111e-015 -45.063 -54.6772 -24.1178 -25.1205 16.2657 -58.4076 8.61473 8.04086 -22.4323 27.2312 -11.8953 -10.1591 -5.35564 32.4548 18.4347 -11.0644 19.8272 2.51483 -10.0769 -27.4142 -13.6415 
-18.2588 91.9175 -77.0931 -8.62263 -1.50042 -70.9233 -13.6831 -11.2141 4.0806 12.0653 51.5852 -3.77685 24.1132 20.4174 -5.94957 -42.5667 -45.4808 21.022 2.03752 12.7334 -0.69938 3.75062 25.6217 -1.89639 22.4363 6.77192 24.9348 44.5821 -19.048 60.2895 21.0134 49.787 107.937 -4.11308 10.7609 -33.3079 -3.94057 -16.4146 40.4836 0 6.75868e-015 -0 -44.4154 -46.6601 -29.425 -17.4129 3.79045 -54.9615 10.9732 7.94981 -17.3972 26.4798 -9.99334 -10.3763 -2.19618 28.9498 18.1321 -9.6726 17.9169 2.03004 -8.1806 -25.3709 -7.80205 
-17.7663 90.8202 -76.0338 -9.71923 -2.23896 -69.6621 -13.8495 -8.75538 3.40863 15.2653 51.8359 -6.9143 22.0831 18.1264 -5.00466 -46.0775 -46.9319 15.737 2.57636 12.8035 -1.1957 3.9917 25.7614 -2.72059 19.0853 5.99491 25.1932 50.2156 -20.7932 64.8429 21.6793 51.6902 105.496 -4.75103 10.9385 -33.7275 -3.89601 -14.2901 39.0475 7.95139e-016 -5.96354e-016 -0 -43.9241 -41.0544 -33.2882 -11.9601 -3.00067 -51.2942 11.9008 8.33501 -11.7429 25.4908 -8.42548 -9.34544 0.0711472 27.3618 16.5057 -9.63635 16.2296 1.8903 -7.58434 -25.5258 -4.00368 
-17.2123 89.7453 -74.8005 -10.57 -3.08662 -69.6662 -14.1586 -6.25622 3.20005 15.9004 51.0604 -8.23272 18.2633 14.9112 -3.63167 -48.9838 -47.0323 9.34255 2.66119 12.8761 -1.02676 3.88462 25.8896 -2.26573 14.8294 4.96186 25.3244 58.2123 -22.2903 70.6509 23.0873 54.4402 101.811 -5.63118 11.1724 -33.8803 -4.45415 -12.7092 36.9726 6.62086e-032 -1.19271e-015 3.18055e-015 -44.0996 -38.4629 -34.8303 -10.7701 -4.19239 -49.9308 10.3351 8.81791 -8.63185 24.6137 -7.56754 -7.9238 0.648435 28.3322 15.3675 -10.2491 14.5634 1.87963 -8.0716 -27.7595 -2.74421 
-16.5168 88.8728 -73.3664 -11.0359 -3.77606 -71.346 -14.5687 -4.56512 3.87134 14.0804 49.9548 -6.72087 14.0474 10.7275 -2.30625 -48.5193 -45.0405 5.18778 2.42984 12.9436 -0.166307 3.35714 26.009 -0.427016 10.5409 3.92408 25.4625 67.1549 -23.2122 76.7008 25.2558 57.6425 97.453 -6.52423 11.3983 -33.7729 -5.56948 -12.2969 34.6546 1.59028e-015 7.7526e-015 -0 -44.2746 -38.6675 -33.2827 -14.3247 -1.05512 -51.4955 6.05568 9.23552 -10.0029 24.1301 -7.60988 -6.82775 -0.791887 31.6185 15.7901 -11.0012 13.6867 1.94728 -9.54519 -31.4337 -4.05395 
-15.6222 88.32 -71.7165 -11.0932 -4.12764 -74.6056 -15.1363 -4.16792 5.26936 10.4021 48.6763 -2.56627 11.3602 7.25497 -1.55259 -46.2286 -42.661 3.81201 2.03107 13.0418 1.2532 2.39657 26.2008 2.58847 6.87789 3.04059 25.6134 75.6695 -23.6453 82.0396 28.0338 60.7533 93.3286 -7.21542 11.5596 -33.4817 -6.92917 -13.4556 32.4157 1.59028e-015 -5.96354e-016 -0 -43.3826 -41.3539 -28.6397 -21.3733 5.8863 -54.7556 -0.348158 10.072 -14.5778 24.1655 -8.50265 -6.2685 -4.16584 36.1886 17.7497 -11.8079 14.5852 2.18503 -12.0426 -35.8122 -7.64126 
